<svg xmlns="http://www.w3.org/2000/svg" xmlns:xlink="http://www.w3.org/1999/xlink" width="500" zoomAndPan="magnify" viewBox="0 0 375 374.999991" height="500" preserveAspectRatio="xMidYMid meet" version="1.2"><defs><clipPath id="aec8a7ed7f"><path d="M 112.445312 113.554688 L 262 113.554688 L 262 202.804688 L 112.445312 202.804688 Z M 112.445312 113.554688 "/></clipPath></defs><g id="7369178194"><g clip-rule="nonzero" clip-path="url(#aec8a7ed7f)"><path style=" stroke:none;fill-rule:evenodd;fill:#2a55ff;fill-opacity:1;" d="M 221.28125 131.574219 C 249.722656 131.574219 262.4375 167.253906 243.03125 185.222656 C 246.691406 179.054688 248.382812 171.960938 247.953125 164.882812 L 195.519531 164.882812 L 188.777344 171.621094 L 166.839844 193.558594 L 157.3125 203.089844 L 170.789062 203.089844 L 195.519531 178.359375 L 210.714844 193.558594 L 220.246094 203.089844 L 221.28125 203.089844 C 225.074219 203.089844 228.746094 202.570312 232.226562 201.59375 C 249.289062 196.816406 261.804688 181.152344 261.804688 162.566406 C 261.804688 140.1875 243.660156 122.042969 221.28125 122.042969 C 204.703125 122.042969 192.644531 133.34375 196.746094 150.566406 C 197.785156 137.765625 209.527344 131.574219 221.28125 131.574219 M 159.398438 146.511719 C 159.398438 133.609375 169.847656 123.160156 182.75 123.160156 C 188.050781 123.160156 192.941406 124.925781 196.859375 127.898438 C 198.453125 125.109375 200.761719 122.742188 203.59375 121.078125 C 197.921875 116.425781 190.664062 113.628906 182.75 113.628906 C 167.597656 113.628906 154.84375 123.875 151.03125 137.816406 C 149.179688 137.492188 147.273438 137.320312 145.328125 137.320312 C 127.167969 137.324219 112.445312 152.042969 112.445312 170.207031 C 112.445312 185.714844 123.179688 198.714844 137.625 202.183594 C 140.09375 202.773438 142.675781 203.089844 145.328125 203.089844 L 150.195312 203.089844 L 188.402344 164.882812 L 174.921875 164.882812 L 146.246094 193.558594 L 145.328125 193.558594 C 132.429688 193.558594 121.972656 183.105469 121.972656 170.207031 C 121.972656 157.304688 132.425781 146.851562 145.328125 146.851562 C 150.917969 146.851562 156.046875 148.816406 160.066406 152.089844 C 159.628906 150.304688 159.398438 148.433594 159.398438 146.511719 Z M 159.398438 146.511719 "/></g><g style="fill:#2a55ff;fill-opacity:1;"><g transform="translate(75.841102, 241.162938)"><path style="stroke:none" d="M 28.203125 -18.90625 L 21.96875 -18.90625 C 21.738281 -20.507812 21.054688 -21.765625 19.921875 -22.671875 C 18.796875 -23.585938 17.390625 -24.046875 15.703125 -24.046875 C 13.453125 -24.046875 11.644531 -23.21875 10.28125 -21.5625 C 8.925781 -19.914062 8.25 -17.578125 8.25 -14.546875 C 8.25 -11.441406 8.929688 -9.082031 10.296875 -7.46875 C 11.671875 -5.851562 13.460938 -5.046875 15.671875 -5.046875 C 17.304688 -5.046875 18.691406 -5.472656 19.828125 -6.328125 C 20.960938 -7.179688 21.675781 -8.382812 21.96875 -9.9375 L 28.203125 -9.921875 C 27.984375 -8.140625 27.347656 -6.460938 26.296875 -4.890625 C 25.242188 -3.316406 23.8125 -2.039062 22 -1.0625 C 20.195312 -0.09375 18.050781 0.390625 15.5625 0.390625 C 12.96875 0.390625 10.648438 -0.191406 8.609375 -1.359375 C 6.566406 -2.535156 4.957031 -4.234375 3.78125 -6.453125 C 2.601562 -8.679688 2.015625 -11.378906 2.015625 -14.546875 C 2.015625 -17.710938 2.609375 -20.410156 3.796875 -22.640625 C 4.992188 -24.867188 6.613281 -26.566406 8.65625 -27.734375 C 10.707031 -28.898438 13.007812 -29.484375 15.5625 -29.484375 C 17.8125 -29.484375 19.835938 -29.066406 21.640625 -28.234375 C 23.441406 -27.410156 24.914062 -26.207031 26.0625 -24.625 C 27.21875 -23.050781 27.929688 -21.144531 28.203125 -18.90625 Z M 28.203125 -18.90625 "/></g></g><g style="fill:#2a55ff;fill-opacity:1;"><g transform="translate(105.923464, 241.162938)"><path style="stroke:none" d="M 8.46875 -29.09375 L 8.46875 0 L 2.421875 0 L 2.421875 -29.09375 Z M 8.46875 -29.09375 "/></g></g><g style="fill:#2a55ff;fill-opacity:1;"><g transform="translate(116.803109, 241.162938)"><path style="stroke:none" d="M 12.265625 0.421875 C 10.066406 0.421875 8.160156 -0.046875 6.546875 -0.984375 C 4.941406 -1.929688 3.703125 -3.25 2.828125 -4.9375 C 1.960938 -6.625 1.53125 -8.585938 1.53125 -10.828125 C 1.53125 -13.078125 1.960938 -15.046875 2.828125 -16.734375 C 3.703125 -18.429688 4.941406 -19.75 6.546875 -20.6875 C 8.160156 -21.632812 10.066406 -22.109375 12.265625 -22.109375 C 14.472656 -22.109375 16.378906 -21.632812 17.984375 -20.6875 C 19.585938 -19.75 20.828125 -18.429688 21.703125 -16.734375 C 22.578125 -15.046875 23.015625 -13.078125 23.015625 -10.828125 C 23.015625 -8.585938 22.578125 -6.625 21.703125 -4.9375 C 20.828125 -3.25 19.585938 -1.929688 17.984375 -0.984375 C 16.378906 -0.046875 14.472656 0.421875 12.265625 0.421875 Z M 12.296875 -4.265625 C 13.796875 -4.265625 14.929688 -4.890625 15.703125 -6.140625 C 16.472656 -7.390625 16.859375 -8.960938 16.859375 -10.859375 C 16.859375 -12.765625 16.472656 -14.34375 15.703125 -15.59375 C 14.929688 -16.851562 13.796875 -17.484375 12.296875 -17.484375 C 10.773438 -17.484375 9.625 -16.851562 8.84375 -15.59375 C 8.070312 -14.34375 7.6875 -12.765625 7.6875 -10.859375 C 7.6875 -8.960938 8.070312 -7.390625 8.84375 -6.140625 C 9.625 -4.890625 10.773438 -4.265625 12.296875 -4.265625 Z M 12.296875 -4.265625 "/></g></g><g style="fill:#2a55ff;fill-opacity:1;"><g transform="translate(141.346222, 241.162938)"><path style="stroke:none" d="M 16.40625 -9.296875 L 16.40625 -21.8125 L 22.453125 -21.8125 L 22.453125 0 L 16.640625 0 L 16.640625 -3.96875 L 16.421875 -3.96875 C 15.929688 -2.6875 15.113281 -1.65625 13.96875 -0.875 C 12.832031 -0.101562 11.441406 0.28125 9.796875 0.28125 C 7.597656 0.28125 5.816406 -0.445312 4.453125 -1.90625 C 3.097656 -3.375 2.421875 -5.378906 2.421875 -7.921875 L 2.421875 -21.8125 L 8.46875 -21.8125 L 8.46875 -9 C 8.476562 -7.71875 8.820312 -6.703125 9.5 -5.953125 C 10.1875 -5.203125 11.101562 -4.828125 12.25 -4.828125 C 13.332031 -4.828125 14.296875 -5.207031 15.140625 -5.96875 C 15.992188 -6.726562 16.414062 -7.835938 16.40625 -9.296875 Z M 16.40625 -9.296875 "/></g></g><g style="fill:#2a55ff;fill-opacity:1;"><g transform="translate(166.216006, 241.162938)"><path style="stroke:none" d="M 10.453125 0.359375 C 8.796875 0.359375 7.300781 -0.0664062 5.96875 -0.921875 C 4.632812 -1.785156 3.570312 -3.050781 2.78125 -4.71875 C 2 -6.394531 1.609375 -8.445312 1.609375 -10.875 C 1.609375 -13.375 2.007812 -15.453125 2.8125 -17.109375 C 3.625 -18.773438 4.695312 -20.023438 6.03125 -20.859375 C 7.375 -21.691406 8.84375 -22.109375 10.4375 -22.109375 C 11.65625 -22.109375 12.675781 -21.898438 13.5 -21.484375 C 14.320312 -21.066406 14.984375 -20.554688 15.484375 -19.953125 C 15.992188 -19.347656 16.378906 -18.75 16.640625 -18.15625 L 16.828125 -18.15625 L 16.828125 -29.09375 L 22.875 -29.09375 L 22.875 0 L 16.90625 0 L 16.90625 -3.5 L 16.640625 -3.5 C 16.367188 -2.882812 15.972656 -2.28125 15.453125 -1.6875 C 14.929688 -1.101562 14.257812 -0.613281 13.4375 -0.21875 C 12.625 0.164062 11.628906 0.359375 10.453125 0.359375 Z M 12.375 -4.453125 C 13.832031 -4.453125 14.957031 -5.039062 15.75 -6.21875 C 16.550781 -7.40625 16.953125 -8.96875 16.953125 -10.90625 C 16.953125 -12.851562 16.554688 -14.398438 15.765625 -15.546875 C 14.972656 -16.703125 13.84375 -17.28125 12.375 -17.28125 C 10.875 -17.28125 9.734375 -16.691406 8.953125 -15.515625 C 8.171875 -14.335938 7.78125 -12.800781 7.78125 -10.90625 C 7.78125 -9 8.171875 -7.445312 8.953125 -6.25 C 9.742188 -5.050781 10.882812 -4.453125 12.375 -4.453125 Z M 12.375 -4.453125 "/></g></g><g style="fill:#000000;fill-opacity:1;"><g transform="translate(192.791228, 241.162938)"><path style="stroke:none" d="M 1.765625 -25.3125 L 1.765625 -29.09375 L 24.28125 -29.09375 L 24.28125 -25.3125 L 15.203125 -25.3125 L 15.203125 0 L 10.828125 0 L 10.828125 -25.3125 Z M 1.765625 -25.3125 "/></g></g><g style="fill:#000000;fill-opacity:1;"><g transform="translate(218.825677, 241.162938)"><path style="stroke:none" d="M 12.265625 0.4375 C 10.109375 0.4375 8.253906 -0.0195312 6.703125 -0.9375 C 5.160156 -1.863281 3.96875 -3.164062 3.125 -4.84375 C 2.289062 -6.53125 1.875 -8.503906 1.875 -10.765625 C 1.875 -13.003906 2.289062 -14.972656 3.125 -16.671875 C 3.96875 -18.378906 5.144531 -19.710938 6.65625 -20.671875 C 8.164062 -21.628906 9.929688 -22.109375 11.953125 -22.109375 C 13.191406 -22.109375 14.382812 -21.898438 15.53125 -21.484375 C 16.6875 -21.078125 17.722656 -20.4375 18.640625 -19.5625 C 19.566406 -18.695312 20.296875 -17.570312 20.828125 -16.1875 C 21.359375 -14.800781 21.625 -13.117188 21.625 -11.140625 L 21.625 -9.625 L 4.28125 -9.625 L 4.28125 -12.8125 L 17.453125 -12.8125 C 17.453125 -13.925781 17.222656 -14.914062 16.765625 -15.78125 C 16.316406 -16.65625 15.679688 -17.34375 14.859375 -17.84375 C 14.046875 -18.34375 13.085938 -18.59375 11.984375 -18.59375 C 10.796875 -18.59375 9.757812 -18.300781 8.875 -17.71875 C 7.988281 -17.132812 7.304688 -16.375 6.828125 -15.4375 C 6.347656 -14.507812 6.109375 -13.503906 6.109375 -12.421875 L 6.109375 -9.921875 C 6.109375 -8.460938 6.363281 -7.222656 6.875 -6.203125 C 7.394531 -5.179688 8.117188 -4.398438 9.046875 -3.859375 C 9.972656 -3.328125 11.054688 -3.0625 12.296875 -3.0625 C 13.109375 -3.0625 13.84375 -3.175781 14.5 -3.40625 C 15.164062 -3.644531 15.738281 -3.992188 16.21875 -4.453125 C 16.707031 -4.921875 17.078125 -5.492188 17.328125 -6.171875 L 21.34375 -5.453125 C 21.019531 -4.265625 20.441406 -3.226562 19.609375 -2.34375 C 18.785156 -1.457031 17.75 -0.769531 16.5 -0.28125 C 15.257812 0.195312 13.847656 0.4375 12.265625 0.4375 Z M 12.265625 0.4375 "/></g></g><g style="fill:#000000;fill-opacity:1;"><g transform="translate(242.317752, 241.162938)"><path style="stroke:none" d="M 12.046875 0.4375 C 9.929688 0.4375 8.113281 -0.0390625 6.59375 -1 C 5.070312 -1.957031 3.90625 -3.285156 3.09375 -4.984375 C 2.28125 -6.679688 1.875 -8.625 1.875 -10.8125 C 1.875 -13.03125 2.289062 -14.988281 3.125 -16.6875 C 3.957031 -18.382812 5.128906 -19.710938 6.640625 -20.671875 C 8.160156 -21.628906 9.945312 -22.109375 12 -22.109375 C 13.65625 -22.109375 15.128906 -21.800781 16.421875 -21.1875 C 17.722656 -20.570312 18.773438 -19.710938 19.578125 -18.609375 C 20.378906 -17.515625 20.859375 -16.234375 21.015625 -14.765625 L 16.875 -14.765625 C 16.644531 -15.796875 16.125 -16.675781 15.3125 -17.40625 C 14.507812 -18.144531 13.429688 -18.515625 12.078125 -18.515625 C 10.890625 -18.515625 9.851562 -18.203125 8.96875 -17.578125 C 8.082031 -16.960938 7.394531 -16.082031 6.90625 -14.9375 C 6.414062 -13.800781 6.171875 -12.457031 6.171875 -10.90625 C 6.171875 -9.3125 6.410156 -7.9375 6.890625 -6.78125 C 7.367188 -5.632812 8.050781 -4.742188 8.9375 -4.109375 C 9.820312 -3.472656 10.867188 -3.15625 12.078125 -3.15625 C 12.878906 -3.15625 13.609375 -3.300781 14.265625 -3.59375 C 14.921875 -3.894531 15.472656 -4.320312 15.921875 -4.875 C 16.378906 -5.4375 16.695312 -6.113281 16.875 -6.90625 L 21.015625 -6.90625 C 20.859375 -5.488281 20.394531 -4.226562 19.625 -3.125 C 18.863281 -2.019531 17.835938 -1.148438 16.546875 -0.515625 C 15.265625 0.117188 13.765625 0.4375 12.046875 0.4375 Z M 12.046875 0.4375 "/></g></g><g style="fill:#000000;fill-opacity:1;"><g transform="translate(265.028654, 241.162938)"><path style="stroke:none" d="M 7.109375 -12.953125 L 7.109375 0 L 2.859375 0 L 2.859375 -29.09375 L 7.046875 -29.09375 L 7.046875 -18.265625 L 7.3125 -18.265625 C 7.820312 -19.441406 8.601562 -20.375 9.65625 -21.0625 C 10.707031 -21.757812 12.082031 -22.109375 13.78125 -22.109375 C 15.269531 -22.109375 16.578125 -21.796875 17.703125 -21.171875 C 18.828125 -20.554688 19.695312 -19.640625 20.3125 -18.421875 C 20.9375 -17.210938 21.25 -15.695312 21.25 -13.875 L 21.25 0 L 17 0 L 17 -13.359375 C 17 -14.960938 16.585938 -16.207031 15.765625 -17.09375 C 14.941406 -17.976562 13.796875 -18.421875 12.328125 -18.421875 C 11.328125 -18.421875 10.429688 -18.207031 9.640625 -17.78125 C 8.847656 -17.351562 8.226562 -16.726562 7.78125 -15.90625 C 7.332031 -15.09375 7.109375 -14.109375 7.109375 -12.953125 Z M 7.109375 -12.953125 "/></g></g></g></svg>